<svg width="40.000000" height="40.000000" viewBox="0 0 40 40" fill="none" xmlns="http://www.w3.org/2000/svg" xmlns:xlink="http://www.w3.org/1999/xlink">
	<desc>
			Created with Pixso.
	</desc>
	<defs/>
	<path d="M40 20C40 31.04 31.04 40 20 40C8.95 40 0 31.04 0 20C0 8.95 8.95 0 20 0C31.04 0 40 8.95 40 20Z" fill="#121212" fill-opacity="1.000000" fill-rule="evenodd"/>
	<path d="M19.82 7.31L12.71 7.31L12.71 30.15L21.25 30.15Q23.85 30.15 25.73 29.36Q27.38 28.67 28.37 27.44Q28.5 27.27 28.63 27.09Q28.74 26.93 28.84 26.76Q29.64 25.38 29.64 23.53Q29.64 21.73 29.09 20.64Q28.6 19.68 27.81 19.12Q27.71 19.05 27.61 18.99Q26.69 18.42 25.55 18.18L25.55 18.03Q26.52 17.85 27.24 17.33Q27.35 17.24 27.46 17.15Q27.56 17.07 27.65 16.98Q28.29 16.35 28.65 15.43Q29.07 14.39 29.07 13.09Q29.07 10.92 28 9.63Q27.48 9.01 26.72 8.59Q24.38 7.31 19.82 7.31ZM20.36 16.35L17.55 16.35L17.55 11.28L20.1 11.28Q22.17 11.28 23.14 11.85Q23.46 12.04 23.68 12.32Q24.1 12.86 24.1 13.73Q24.1 14.73 23.61 15.36Q23.47 15.54 23.28 15.69Q22.47 16.35 20.36 16.35ZM17.55 26.15L17.55 20.2L20.55 20.2Q22.1 20.2 22.98 20.56Q23.86 20.92 24.24 21.56Q24.26 21.59 24.28 21.63Q24.61 22.25 24.61 23.04Q24.61 24.13 24.11 24.88Q23.95 25.11 23.75 25.31Q22.89 26.15 20.71 26.15L17.55 26.15Z" fill="#FFFFFF" fill-opacity="1.000000" fill-rule="evenodd"/>
</svg>
