<svg width="13.000000" height="13.000000" viewBox="0 0 13 13" fill="none" xmlns="http://www.w3.org/2000/svg" xmlns:xlink="http://www.w3.org/1999/xlink">
	<desc>
			Created with Pixso.
	</desc>
	<defs/>
	<path d="M9.53 8.38L8.92 8.38L8.71 8.17C9.63 7.11 10.1 5.65 9.84 4.1C9.48 1.98 7.71 0.29 5.58 0.03C2.35 -0.36 -0.36 2.35 0.03 5.57C0.29 7.71 1.99 9.48 4.1 9.83C5.66 10.09 7.11 9.62 8.18 8.71L8.38 8.92L8.38 9.52L11.62 12.76C11.94 13.07 12.45 13.07 12.76 12.76C13.07 12.45 13.07 11.94 12.76 11.63L9.53 8.38ZM4.95 8.38C3.05 8.38 1.52 6.85 1.52 4.95C1.52 3.05 3.05 1.52 4.95 1.52C6.85 1.52 8.38 3.05 8.38 4.95C8.38 6.85 6.85 8.38 4.95 8.38Z" fill="#121212" fill-opacity="1.000000" fill-rule="nonzero"/>
</svg>
