<svg width="22.730469" height="22.744141" viewBox="0 0 22.7305 22.7441" fill="none" xmlns="http://www.w3.org/2000/svg" xmlns:xlink="http://www.w3.org/1999/xlink">
	<desc>
			Created with Pixso.
	</desc>
	<defs/>
	<path id="Vector" d="M16.66 14.66L15.61 14.66L15.24 14.3C16.83 12.44 17.66 9.89 17.21 7.18C16.58 3.48 13.49 0.52 9.76 0.06C4.12 -0.63 -0.63 4.12 0.06 9.76C0.51 13.49 3.48 16.58 7.18 17.21C9.89 17.66 12.44 16.84 14.3 15.24L14.66 15.61L14.66 16.66L20.33 22.33C20.87 22.88 21.77 22.88 22.32 22.33C22.86 21.78 22.86 20.89 22.32 20.34L16.66 14.66ZM8.66 14.66C5.34 14.66 2.66 11.98 2.66 8.66C2.66 5.34 5.34 2.66 8.66 2.66C11.98 2.66 14.66 5.34 14.66 8.66C14.66 11.98 11.98 14.66 8.66 14.66Z" fill="#FAFAFA" fill-opacity="1.000000" fill-rule="nonzero"/>
</svg>
